<?xml version="1.0" encoding="UTF-8" standalone="no"?>
<!-- Created with Inkscape (http://www.inkscape.org/) -->

<svg
   width="400mm"
   height="300mm"
   viewBox="0 0 400 300"
   version="1.1"
   id="svg136"
   sodipodi:docname="Gehause.svg"
   inkscape:version="1.1.2 (b8e25be8, 2022-02-05)"
   xmlns:inkscape="http://www.inkscape.org/namespaces/inkscape"
   xmlns:sodipodi="http://sodipodi.sourceforge.net/DTD/sodipodi-0.dtd"
   xmlns="http://www.w3.org/2000/svg"
   xmlns:svg="http://www.w3.org/2000/svg">
  <sodipodi:namedview
     id="namedview138"
     pagecolor="#ffffff"
     bordercolor="#666666"
     borderopacity="1.0"
     inkscape:pageshadow="2"
     inkscape:pageopacity="0.0"
     inkscape:pagecheckerboard="0"
     inkscape:document-units="mm"
     showgrid="false"
     width="300mm"
     inkscape:zoom="0.63234634"
     inkscape:cx="727.44945"
     inkscape:cy="555.86627"
     inkscape:window-width="1383"
     inkscape:window-height="969"
     inkscape:window-x="0"
     inkscape:window-y="38"
     inkscape:window-maximized="0"
     inkscape:current-layer="layer1" />
  <defs
     id="defs133" />
  <g
     inkscape:label="Ebene 1"
     inkscape:groupmode="layer"
     id="layer1">
    <circle
       style="fill:none;fill-rule:evenodd;stroke:#ff0000;stroke-width:0.1;stroke-miterlimit:4;stroke-dasharray:none;stroke-opacity:1"
       id="path31"
       cx="-167.55"
       cy="305.54999"
       r="22.5"
       transform="rotate(-90)" />
    <ellipse
       style="fill:none;stroke:#ff0000;stroke-width:0.0990843;stroke-miterlimit:4;stroke-dasharray:none;stroke-dashoffset:0;stroke-opacity:1"
       id="path1214"
       cx="-186.60001"
       cy="286.5"
       rx="1.9504578"
       ry="1.9504579"
       transform="rotate(-90)" />
    <ellipse
       style="fill:none;stroke:#ff0000;stroke-width:0.1;stroke-miterlimit:4;stroke-dasharray:none;stroke-dashoffset:0;stroke-opacity:1"
       id="path1214-0"
       cx="-186.58153"
       cy="324.51849"
       rx="1.9684703"
       ry="1.9684985"
       transform="rotate(-90)" />
    <ellipse
       style="fill:none;stroke:#ff0000;stroke-width:0.1;stroke-miterlimit:4;stroke-dasharray:none;stroke-dashoffset:0;stroke-opacity:1"
       id="path1214-0-5"
       cx="-148.58153"
       cy="324.51849"
       rx="1.9684703"
       ry="1.9684985"
       transform="rotate(-90)" />
    <ellipse
       style="fill:none;stroke:#ff0000;stroke-width:0.1;stroke-miterlimit:4;stroke-dasharray:none;stroke-dashoffset:0;stroke-opacity:1"
       id="path1214-5"
       cx="-148.582"
       cy="286.51849"
       rx="1.9680001"
       ry="1.9684985"
       transform="rotate(-90)" />
    <circle
       style="fill:none;fill-rule:evenodd;stroke:#ff0000;stroke-width:0.1;stroke-miterlimit:4;stroke-dasharray:none;stroke-opacity:1"
       id="path31-8"
       cx="-110.55"
       cy="305.54999"
       r="22.5"
       transform="rotate(-90)" />
    <ellipse
       style="fill:none;stroke:#ff0000;stroke-width:0.0990843;stroke-miterlimit:4;stroke-dasharray:none;stroke-dashoffset:0;stroke-opacity:1"
       id="path1214-8"
       cx="-129.60001"
       cy="286.5"
       rx="1.9504578"
       ry="1.9504579"
       transform="rotate(-90)" />
    <ellipse
       style="fill:none;stroke:#ff0000;stroke-width:0.1;stroke-miterlimit:4;stroke-dasharray:none;stroke-dashoffset:0;stroke-opacity:1"
       id="path1214-0-3"
       cx="-129.58153"
       cy="324.51849"
       rx="1.9684703"
       ry="1.9684985"
       transform="rotate(-90)" />
    <ellipse
       style="fill:none;stroke:#ff0000;stroke-width:0.1;stroke-miterlimit:4;stroke-dasharray:none;stroke-dashoffset:0;stroke-opacity:1"
       id="path1214-0-5-0"
       cx="-91.581528"
       cy="324.51849"
       rx="1.9684703"
       ry="1.9684985"
       transform="rotate(-90)" />
    <ellipse
       style="fill:none;stroke:#ff0000;stroke-width:0.1;stroke-miterlimit:4;stroke-dasharray:none;stroke-dashoffset:0;stroke-opacity:1"
       id="path1214-5-6"
       cx="-91.582001"
       cy="286.51849"
       rx="1.9680001"
       ry="1.9684985"
       transform="rotate(-90)" />
    <circle
       style="fill:none;fill-rule:evenodd;stroke:#ff0000;stroke-width:0.1;stroke-miterlimit:4;stroke-dasharray:none;stroke-opacity:1"
       id="path31-8-1"
       cx="-53.549999"
       cy="305.54999"
       r="22.5"
       transform="rotate(-90)" />
    <ellipse
       style="fill:none;stroke:#ff0000;stroke-width:0.0990843;stroke-miterlimit:4;stroke-dasharray:none;stroke-dashoffset:0;stroke-opacity:1"
       id="path1214-8-1"
       cx="-72.599998"
       cy="286.5"
       rx="1.9504578"
       ry="1.9504579"
       transform="rotate(-90)" />
    <ellipse
       style="fill:none;stroke:#ff0000;stroke-width:0.1;stroke-miterlimit:4;stroke-dasharray:none;stroke-dashoffset:0;stroke-opacity:1"
       id="path1214-0-3-8"
       cx="-72.581528"
       cy="324.51849"
       rx="1.9684703"
       ry="1.9684985"
       transform="rotate(-90)" />
    <ellipse
       style="fill:none;stroke:#ff0000;stroke-width:0.1;stroke-miterlimit:4;stroke-dasharray:none;stroke-dashoffset:0;stroke-opacity:1"
       id="path1214-0-5-0-7"
       cx="-34.581532"
       cy="324.51849"
       rx="1.9684703"
       ry="1.9684985"
       transform="rotate(-90)" />
    <ellipse
       style="fill:none;stroke:#ff0000;stroke-width:0.1;stroke-miterlimit:4;stroke-dasharray:none;stroke-dashoffset:0;stroke-opacity:1"
       id="path1214-5-6-6"
       cx="-34.582005"
       cy="286.51849"
       rx="1.9680001"
       ry="1.9684985"
       transform="rotate(-90)" />
    <g
       id="box1365"
       transform="rotate(90,166.5,179.55)"
       style="stroke:#ff0000">
      <path
         style="fill:none;stroke:#ff0000;stroke-width:0.1;stroke-linecap:butt;stroke-linejoin:miter"
         id="box1365-lid"
         d="m 0,0 h 4.875 v -3 h 9.75 v 3 h 4.875 4.875 v -3 h 9.75 V 0 H 39 43.875 v -3 h 9.75 v 3 h 4.875 4.875 v -3 h 9.75 V 0 H 78 82.875 v -3 h 9.75 v 3 h 4.875 4.875 v -3 h 9.75 v 3 h 4.875 4.875 v -3 h 9.75 v 3 h 4.875 4.875 v -3 h 9.75 v 3 h 4.875 4.875 v -3 h 9.75 v 3 h 4.875 4.875 v -3 h 9.75 V 0 H 195 v 6.75 h 3 v 13.5 h -3 V 27 33.75 h 3 v 13.5 h -3 V 54 60.75 h 3 v 13.5 h -3 V 81 h -4.875 v 3 h -9.75 v -3 h -4.875 -4.875 v 3 h -9.75 V 81 H 156 151.125 v 3 h -9.75 v -3 h -4.875 -4.875 v 3 h -9.75 V 81 H 117 112.125 v 3 h -9.75 V 81 H 97.5 92.625 v 3 h -9.75 V 81 H 78 73.125 v 3 h -9.75 V 81 H 58.5 53.625 v 3 h -9.75 V 81 H 39 34.125 v 3 h -9.75 V 81 H 19.5 14.625 v 3 H 4.875 V 81 H 0 V 74.25 H -3 V 60.75 H 0 V 54 47.25 H -3 V 33.75 H 0 V 27 20.25 H -3 V 6.75 H 0 V 0" />
      <path
         style="fill:none;stroke:#ff0000;stroke-width:0.1;stroke-linecap:butt;stroke-linejoin:miter"
         id="box1365-longside1"
         d="m -3,84 v -3 h 3 m 198,0 v 3 5.0625 h -3 v 10.125 h 3 v 5.0625 5.0625 h -3 v 10.125 h 3 v 5.0625 5.0625 h -3 v 10.125 h 3 v 5.0625 5.0625 h -3 v 10.125 h 3 V 165 v 3 h -3 -4.875 v -3 h -9.75 v 3 h -4.875 -4.875 v -3 h -9.75 v 3 H 156 151.125 v -3 h -9.75 v 3 h -4.875 -4.875 v -3 h -9.75 v 3 H 117 112.125 v -3 h -9.75 v 3 H 97.5 92.625 v -3 h -9.75 v 3 H 78 73.125 v -3 h -9.75 v 3 H 58.5 53.625 v -3 h -9.75 v 3 H 39 34.125 v -3 h -9.75 v 3 H 19.5 14.625 v -3 h -9.75 v 3 H 0 -3 v -3 -5.0625 h 3 v -10.125 h -3 v -5.0625 -5.0625 h 3 v -10.125 H -3 V 124.5 119.4375 h 3 v -10.125 H -3 V 104.25 99.1875 H 0 V 89.0625 H -3 V 84" />
      <path
         style="fill:none;stroke:#ff0000;stroke-width:0.1;stroke-linecap:butt;stroke-linejoin:miter"
         id="box1365-base"
         d="m 0,168 m 195,0 v 6.75 h 3 v 13.5 h -3 v 6.75 6.75 h 3 v 13.5 h -3 v 6.75 6.75 h 3 v 13.5 h -3 V 249 h -4.875 v 3 h -9.75 v -3 h -4.875 -4.875 v 3 h -9.75 v -3 H 156 151.125 v 3 h -9.75 v -3 h -4.875 -4.875 v 3 h -9.75 v -3 H 117 112.125 v 3 h -9.75 v -3 H 97.5 92.625 v 3 h -9.75 v -3 H 78 73.125 v 3 h -9.75 v -3 H 58.5 53.625 v 3 h -9.75 v -3 H 39 34.125 v 3 h -9.75 v -3 H 19.5 14.625 v 3 h -9.75 v -3 H 0 v -6.75 h -3 v -13.5 H 0 V 222 215.25 h -3 v -13.5 H 0 V 195 188.25 h -3 v -13.5 H 0 V 168" />
      <path
         style="fill:none;stroke:#ff0000;stroke-width:0.1;stroke-linecap:butt;stroke-linejoin:miter"
         id="box1365-longside2"
         d="m -3,252 v -3 h 3 m 198,0 v 3 5.0625 h -3 v 10.125 h 3 v 5.0625 5.0625 h -3 v 10.125 h 3 v 5.0625 5.0625 h -3 v 10.125 h 3 v 5.0625 5.0625 h -3 v 10.125 h 3 V 333 v 3 h -3 -4.875 v -3 h -9.75 v 3 h -4.875 -4.875 v -3 h -9.75 v 3 H 156 151.125 v -3 h -9.75 v 3 h -4.875 -4.875 v -3 h -9.75 v 3 H 117 112.125 v -3 h -9.75 v 3 H 97.5 92.625 v -3 h -9.75 v 3 H 78 73.125 v -3 h -9.75 v 3 H 58.5 53.625 v -3 h -9.75 v 3 H 39 34.125 v -3 h -9.75 v 3 H 19.5 14.625 v -3 h -9.75 v 3 H 0 -3 v -3 -5.0625 h 3 v -10.125 h -3 v -5.0625 -5.0625 h 3 v -10.125 H -3 V 292.5 287.4375 h 3 v -10.125 h -3 v -5.0625 -5.0625 h 3 v -10.125 H -3 V 252" />
      <path
         style="fill:none;stroke:#ff0000;stroke-width:0.1;stroke-linecap:butt;stroke-linejoin:miter"
         id="box1365-endface2"
         d="m 195,0 h 3 5.0625 v -3 h 10.125 v 3 h 5.0625 5.0625 v -3 h 10.125 v 3 h 5.0625 5.0625 v -3 h 10.125 v 3 h 5.0625 5.0625 v -3 h 10.125 V 0 H 279 h 3 v 6.75 h -3 v 13.5 h 3 V 27 33.75 h -3 v 13.5 h 3 V 54 60.75 h -3 v 13.5 h 3 V 81 h -3 -5.0625 v 3 h -10.125 v -3 h -5.0625 -5.0625 v 3 h -10.125 V 81 H 238.5 233.4375 v 3 h -10.125 v -3 h -5.0625 -5.0625 v 3 h -10.125 V 81 H 198 195" />
      <path
         style="fill:none;stroke:#ff0000;stroke-width:0.1;stroke-linecap:butt;stroke-linejoin:miter"
         id="box1365-endface1"
         d="m 195,168 m 3,0 h 5.0625 v -3 h 10.125 v 3 h 5.0625 5.0625 v -3 h 10.125 v 3 h 5.0625 5.0625 v -3 h 10.125 v 3 h 5.0625 5.0625 v -3 h 10.125 v 3 H 279 h 3 v 6.75 h -3 v 13.5 h 3 v 6.75 6.75 h -3 v 13.5 h 3 v 6.75 6.75 h -3 v 13.5 h 3 V 249 h -3 -5.0625 v 3 h -10.125 v -3 h -5.0625 -5.0625 v 3 h -10.125 v -3 H 238.5 233.4375 v 3 h -10.125 v -3 h -5.0625 -5.0625 v 3 h -10.125 v -3 H 198 195" />
    </g>
  </g>
</svg>
